<svg width="56" height="56" viewBox="0 0 56 56" fill="none" xmlns="http://www.w3.org/2000/svg">
<path d="M28 1.16699C42.8196 1.16699 54.833 13.1804 54.833 28C54.833 42.8196 42.8196 54.833 28 54.833C13.1804 54.833 1.16699 42.8196 1.16699 28C1.16699 13.1804 13.1804 1.16699 28 1.16699Z" stroke="white" stroke-width="2.33333"/>
<path d="M42 28C42 20.3 35.7 14 28 14C20.3 14 14 20.3 14 28C14 35 19.075 40.775 25.725 41.825V32.025H22.225V28H25.725V24.85C25.725 21.35 27.825 19.425 30.975 19.425C32.55 19.425 34.125 19.775 34.125 19.775V23.275H32.375C30.625 23.275 30.1 24.325 30.1 25.375V28H33.95L33.25 32.025H29.925V42C36.925 40.95 42 35 42 28Z" fill="white"/>
</svg>
