<svg width="56" height="56" viewBox="0 0 56 56" fill="none" xmlns="http://www.w3.org/2000/svg">
<rect x="1.16667" y="1.16667" width="53.6667" height="53.6667" rx="26.8333" stroke="white" stroke-width="2.33333"/>
<path d="M28 1.16699C42.8196 1.16699 54.833 13.1804 54.833 28C54.833 42.8196 42.8196 54.833 28 54.833C13.1804 54.833 1.16699 42.8196 1.16699 28C1.16699 13.1804 13.1804 1.16699 28 1.16699Z" stroke="white" stroke-width="2.33333"/>
<path d="M27.9964 16.1011C31.8464 16.1011 32.3714 16.1011 33.9464 16.1011C35.3464 16.1011 36.0464 16.4511 36.5714 16.6261C37.2714 16.9761 37.7964 17.1511 38.3214 17.6761C38.8464 18.2011 39.1964 18.7261 39.3714 19.4261C39.5464 19.9511 39.7214 20.6511 39.8964 22.0511C39.8964 23.6261 39.8964 23.9761 39.8964 28.0011C39.8964 32.0261 39.8964 32.3761 39.8964 33.9511C39.8964 35.3511 39.5464 36.0511 39.3714 36.5761C39.0214 37.2761 38.8464 37.8011 38.3214 38.3261C37.7964 38.8511 37.2714 39.2011 36.5714 39.3761C36.0464 39.5511 35.3464 39.7261 33.9464 39.9011C32.3714 39.9011 32.0214 39.9011 27.9964 39.9011C23.9714 39.9011 23.6214 39.9011 22.0464 39.9011C20.6464 39.9011 19.9464 39.5511 19.4214 39.3761C18.7214 39.0261 18.1964 38.8511 17.6714 38.3261C17.1464 37.8011 16.7964 37.2761 16.6214 36.5761C16.4464 36.0511 16.2714 35.3511 16.0964 33.9511C16.0964 32.3761 16.0964 32.0261 16.0964 28.0011C16.0964 23.9761 16.0964 23.6261 16.0964 22.0511C16.0964 20.6511 16.4464 19.9511 16.6214 19.4261C16.9714 18.7261 17.1464 18.2011 17.6714 17.6761C18.1964 17.1511 18.7214 16.8011 19.4214 16.6261C19.9464 16.4511 20.6464 16.2761 22.0464 16.1011C23.6214 16.1011 24.1464 16.1011 27.9964 16.1011ZM27.9964 13.4761C23.9714 13.4761 23.6214 13.4761 22.0464 13.4761C20.4714 13.4761 19.4214 13.8261 18.5464 14.1761C17.6714 14.5261 16.7964 15.0511 15.9214 15.9261C15.0464 16.8011 14.6964 17.5011 14.1714 18.5511C13.8214 19.4261 13.6464 20.4761 13.4714 22.0511C13.4714 23.6261 13.4714 24.1511 13.4714 28.0011C13.4714 32.0261 13.4714 32.3761 13.4714 33.9511C13.4714 35.5261 13.8214 36.5761 14.1714 37.4511C14.5214 38.3261 15.0464 39.2011 15.9214 40.0761C16.7964 40.9511 17.4964 41.3011 18.5464 41.8261C19.4214 42.1761 20.4714 42.3511 22.0464 42.5261C23.6214 42.5261 24.1464 42.5261 27.9964 42.5261C31.8464 42.5261 32.3714 42.5261 33.9464 42.5261C35.5214 42.5261 36.5714 42.1761 37.4464 41.8261C38.3214 41.4761 39.1964 40.9511 40.0714 40.0761C40.9464 39.2011 41.2964 38.5011 41.8214 37.4511C42.1714 36.5761 42.3464 35.5261 42.5214 33.9511C42.5214 32.3761 42.5214 31.8511 42.5214 28.0011C42.5214 24.1511 42.5214 23.6261 42.5214 22.0511C42.5214 20.4761 42.1714 19.4261 41.8214 18.5511C41.4714 17.6761 40.9464 16.8011 40.0714 15.9261C39.1964 15.0511 38.4964 14.7011 37.4464 14.1761C36.5714 13.8261 35.5214 13.6511 33.9464 13.4761C32.3714 13.4761 32.0214 13.4761 27.9964 13.4761Z" fill="white"/>
<path d="M27.9964 20.4761C23.7964 20.4761 20.4714 23.8011 20.4714 28.0011C20.4714 32.2011 23.7964 35.5261 27.9964 35.5261C32.1964 35.5261 35.5214 32.2011 35.5214 28.0011C35.5214 23.8011 32.1964 20.4761 27.9964 20.4761ZM27.9964 32.9011C25.3714 32.9011 23.0964 30.8011 23.0964 28.0011C23.0964 25.3761 25.1964 23.1011 27.9964 23.1011C30.6214 23.1011 32.8964 25.2011 32.8964 28.0011C32.8964 30.6261 30.6214 32.9011 27.9964 32.9011Z" fill="white"/>
<path d="M35.6964 22.0511C36.6629 22.0511 37.4464 21.2676 37.4464 20.3011C37.4464 19.3346 36.6629 18.5511 35.6964 18.5511C34.7299 18.5511 33.9464 19.3346 33.9464 20.3011C33.9464 21.2676 34.7299 22.0511 35.6964 22.0511Z" fill="white"/>
</svg>
