<svg width="56" height="56" viewBox="0 0 56 56" fill="none" xmlns="http://www.w3.org/2000/svg">
<path d="M28 1.16699C42.8196 1.16699 54.833 13.1804 54.833 28C54.833 42.8196 42.8196 54.833 28 54.833C13.1804 54.833 1.16699 42.8196 1.16699 28C1.16699 13.1804 13.1804 1.16699 28 1.16699Z" stroke="white" stroke-width="2.33333"/>
<path d="M20.3 42H14.35V23.275H20.3V42ZM17.325 20.65C15.4 20.65 14 19.25 14 17.325C14 15.4 15.575 14 17.325 14C19.25 14 20.65 15.4 20.65 17.325C20.65 19.25 19.25 20.65 17.325 20.65ZM42 42H36.05V31.85C36.05 28.875 34.825 28 33.075 28C31.325 28 29.575 29.4 29.575 32.025V42H23.625V23.275H29.225V25.9C29.75 24.675 31.85 22.75 34.825 22.75C38.15 22.75 41.65 24.675 41.65 30.45V42H42Z" fill="white"/>
</svg>
