<?xml version="1.0" encoding="UTF-8"?>
<!DOCTYPE svg PUBLIC "-//W3C//DTD SVG 1.1//EN" "http://www.w3.org/Graphics/SVG/1.1/DTD/svg11.dtd">
<!-- Creator: CorelDRAW 2021 (64-Bit) -->
<svg xmlns="http://www.w3.org/2000/svg" xml:space="preserve" width="6.31421in" height="3.63407in" version="1.1" style="shape-rendering:geometricPrecision; text-rendering:geometricPrecision; image-rendering:optimizeQuality; fill-rule:evenodd; clip-rule:evenodd"
viewBox="0 0 497.72 286.46"
 xmlns:xlink="http://www.w3.org/1999/xlink"
 xmlns:xodm="http://www.corel.com/coreldraw/odm/2003">
 <defs>
  <style type="text/css">
   <![CDATA[
    .fil1 {fill:black}
    .fil0 {fill:black;fill-rule:nonzero}
   ]]>
  </style>
 </defs>
 <g id="Layer_x0020_1">
  <metadata id="CorelCorpID_0Corel-Layer"/>
  <path class="fil0" d="M47.08 0.01c0.17,-0 0.35,-0 0.52,-0 0.47,-0 0.95,-0 1.42,0 0.52,0 1.03,-0 1.55,-0 0.91,-0 1.81,-0 2.72,-0 0.97,0 1.94,0 2.91,-0 0.06,0 0.12,0 0.19,0 0.25,0 0.5,0 0.75,-0 2.61,-0 5.22,-0 7.82,-0 0.28,0 0.56,0 0.84,0 0.1,0 0.1,0 0.21,0 1.54,-0 3.09,-0 4.63,-0 0.64,0 1.27,0 1.91,0 0.07,-0 0.14,-0 0.21,-0 4.03,-0 8.06,-0 12.09,-0 0.15,0 0.3,0 0.45,0 0.68,0 1.36,0 2.04,0 0.3,0 0.61,0 0.91,0 0.15,0 0.3,0 0.46,0 4.8,0 9.6,-0 14.4,-0 1.21,-0 2.42,-0 3.63,-0 0.07,0 0.15,0 0.23,0 2.3,-0 4.59,-0 6.89,-0 0.11,0 0.11,0 0.22,0 1.58,0 3.17,-0 4.75,0 0.57,0 1.13,0 1.7,0 0.14,0 0.28,0 0.42,0 2.24,0 4.49,-0 6.73,-0 2.26,-0 4.52,-0 6.78,-0 0.31,0 0.63,0 0.94,0 0.09,0 0.09,0 0.19,0 0.97,0 1.94,-0 2.9,-0 0.95,-0 1.91,-0 2.86,0 0.51,0 1.02,0 1.53,-0 1.99,-0 3.96,-0 5.94,0.18 0.1,0.01 0.1,0.01 0.21,0.02 0.36,0.03 0.72,0.07 1.08,0.12 0.05,0.01 0.11,0.01 0.16,0.02 5.3,0.66 10.55,2.2 15.3,4.67 0.21,0.11 0.43,0.22 0.64,0.33 2.73,1.39 5.3,3.09 7.68,5.01 0.08,0.06 0.15,0.12 0.23,0.18 1.45,1.18 2.8,2.44 4.13,3.76 0.07,0.07 0.07,0.07 0.14,0.14 0.51,0.51 1.01,1.01 1.47,1.56 0.08,0.1 0.17,0.19 0.25,0.29 0.54,0.61 1.06,1.24 1.56,1.89 0.14,0.18 0.27,0.35 0.41,0.53 1.2,1.54 2.29,3.18 3.26,4.87 0.04,0.07 0.08,0.14 0.12,0.21 3.08,5.36 5.1,11.22 5.92,17.36 0.01,0.08 0.02,0.17 0.03,0.25 0.15,1.12 0.24,2.23 0.29,3.36 0,0.07 0.01,0.13 0.01,0.2 0.08,1.55 0.09,3.09 0.08,4.64 -0,0.41 0,0.81 0,1.22 0,0.71 0,1.42 0,2.14 -0,1.07 -0,2.13 0,3.2 0,1.82 0,3.63 0,5.45 -0,1.84 -0,3.68 -0,5.52 0,0.06 0,0.12 0,0.18 0,0.53 0,1.07 0,1.6 0,1.34 0,2.67 0,4.01 0,0.06 0,0.12 0,0.19 0,3.01 0,6.03 -0,9.04 0,0.13 0,0.26 0,0.4 0,0.07 0,0.13 0,0.2 -0,0.86 -0,1.72 -0,2.59 0,0.07 0,0.13 0,0.2 -0,3.06 -0,6.12 0,9.18 0,0.33 0,0.67 0,1 0,1.01 0,2.01 0,3.02 0,3.07 0,6.14 0,9.21 0,0.07 0,0.14 0,0.21 0,4.42 0,8.85 -0,13.27 0,0.07 0,0.14 0,0.21 -0,2.36 -0,4.73 -0,7.09 -0,7.15 -0,14.3 0,27.07 0,2.36 0,4.73 0,7.09 0,0.07 0,0.14 0,0.21 0,4.42 0,8.84 0,13.27 0,0.07 0,0.14 0,0.21 0,3.07 0,6.14 -0,9.2 0,1.01 0,2.01 0,3.02 0,0.33 0,0.67 0,1 -0,3.06 -0,6.12 0,9.18 0,0.07 0,0.13 0,0.2 0,0.86 0,1.72 0,2.59 0,0.07 0,0.13 0,0.2 0,0.13 0,0.26 0,0.4 0,3.01 0,6.02 0,9.03 0,0.09 0,0.09 0,0.19 0,1.33 -0,2.67 -0,4 0,0.53 0,1.07 -0,1.6 0,0.06 0,0.12 0,0.18 -0,1.84 0,3.67 0,5.51 0,1.86 0,3.72 -0,5.59 -0,1.06 -0,2.11 0,3.17 0,0.7 0,1.41 -0,2.11 -0,0.4 -0,0.8 0,1.19 0,1.53 -0.02,3.07 -0.09,4.6 -0,0.06 -0.01,0.13 -0.01,0.19 -0.16,3.1 -0.66,6.16 -1.45,9.16 -0.02,0.09 -0.05,0.18 -0.07,0.28 -1.6,5.97 -4.36,11.59 -8.15,16.49 -0.06,0.07 -0.06,0.07 -0.11,0.15 -0.72,0.93 -1.47,1.83 -2.27,2.7 -0.16,0.17 -0.31,0.34 -0.46,0.52 -0.28,0.32 -0.58,0.63 -0.88,0.94 -0.05,0.05 -0.11,0.11 -0.16,0.16 -0.11,0.11 -0.22,0.22 -0.33,0.33 -0.17,0.17 -0.34,0.34 -0.51,0.51 -0.11,0.11 -0.22,0.22 -0.33,0.33 -0.05,0.05 -0.1,0.1 -0.15,0.15 -0.35,0.35 -0.71,0.67 -1.08,0.99 -0.1,0.08 -0.19,0.17 -0.29,0.25 -0.62,0.54 -1.24,1.06 -1.89,1.56 -0.11,0.08 -0.22,0.17 -0.33,0.25 -2.05,1.58 -4.23,2.97 -6.5,4.2 -0.12,0.06 -0.24,0.13 -0.35,0.19 -4.88,2.69 -10.41,4.32 -15.92,5.04 -0.09,0.01 -0.09,0.01 -0.18,0.02 -2.51,0.33 -5,0.34 -7.53,0.34 -0.52,-0 -1.04,0 -1.56,0 -0.91,0 -1.82,0 -2.72,0 -0.97,-0 -1.95,-0 -2.92,-0 -0.06,0 -0.12,0 -0.19,0 -0.25,0 -0.5,0 -0.75,0 -2.33,0 -4.67,0 -7,0 -2.25,-0 -4.5,-0 -6.75,-0 -0.14,0 -0.28,0 -0.42,0 -0.57,0 -1.14,0 -1.71,0 -1.59,0 -3.18,0 -4.77,0 -0.11,0 -0.11,0 -0.22,0 -2.3,0 -4.61,0 -6.91,-0 -0.07,0 -0.15,0 -0.23,0 -1.21,-0 -2.43,-0 -3.64,-0 -4.81,-0 -9.62,-0 -14.43,0 -1.21,0 -2.42,0 -3.64,0 -0.07,0 -0.15,0 -0.23,0 -2.3,0 -4.6,0 -6.91,0 -0.07,0 -0.14,0 -0.22,0 -1.59,0 -3.18,0 -4.76,-0 -0.57,0 -1.14,0 -1.7,0 -0.14,0 -0.28,0 -0.42,0 -2.25,-0 -4.5,0 -6.74,0 -2.33,0 -4.66,0 -6.98,-0 -0.25,0 -0.5,0 -0.75,-0 -0.06,0 -0.12,0 -0.19,0 -0.97,-0 -1.94,0 -2.91,0 -0.96,0 -1.91,0 -2.87,-0 -0.51,-0 -1.02,-0 -1.53,0 -3.9,0 -3.9,0 -5.77,-0.18 -0.13,-0.01 -0.26,-0.02 -0.39,-0.04 -0.3,-0.03 -0.6,-0.06 -0.89,-0.1 -0.05,-0.01 -0.11,-0.01 -0.16,-0.02 -5.35,-0.67 -10.5,-2.27 -15.32,-4.68 -0.09,-0.04 -0.18,-0.09 -0.27,-0.13 -1.81,-0.91 -3.54,-1.94 -5.21,-3.09 -0.09,-0.06 -0.09,-0.06 -0.17,-0.12 -1.2,-0.83 -2.36,-1.71 -3.46,-2.66 -0.22,-0.18 -0.44,-0.36 -0.66,-0.54 -1.03,-0.84 -1.95,-1.79 -2.89,-2.73 -0.07,-0.06 -0.07,-0.06 -0.13,-0.13 -0.48,-0.48 -0.95,-0.96 -1.39,-1.48 -0.08,-0.09 -0.16,-0.19 -0.25,-0.28 -4.85,-5.54 -8.38,-12.16 -11.22,-24.04 -0.01,-0.06 -0.02,-0.12 -0.03,-0.18 -0.38,-2.46 -0.47,-4.92 -0.47,-7.41 0,-0.41 0,-0.83 -0,-1.24 -0,-0.73 -0,-1.45 0,-2.18 0,-1.09 0,-2.17 -0,-3.26 -0,-1.85 -0,-3.7 -0,-5.56 0,-1.88 0,-3.75 0,-5.63 0,-0.06 0,-0.12 0,-0.18 -0,-0.54 -0,-1.09 -0,-1.63 -0,-1.36 -0,-2.72 -0,-4.09 0,-0.06 0,-0.12 0,-0.19 -0,-3.07 0,-6.14 0,-9.22 0,-0.13 0,-0.27 0,-0.4 0,-0.1 0,-0.1 0,-0.2 0,-0.88 0,-1.76 0,-2.64 0,-0.1 0,-0.1 0,-0.2 0,-3.12 0,-6.23 0,-9.35 0,-0.34 0,-0.68 0,-1.02 0,-1.03 0,-2.05 -0,-3.08 0,-3.13 -0,-6.26 -0,-9.38 0,-0.07 0,-0.14 0,-0.21 0,-4.51 0,-9.02 0,-13.52 0,-0.07 0,-0.14 0,-0.22 0,-2.41 0,-4.82 0,-7.23 0,-7.29 0,-14.57 0,-27.58 -0,-2.41 -0,-4.82 -0,-7.23 0,-0.07 0,-0.14 0,-0.22 -0,-4.51 -0,-9.01 -0,-13.52 0,-0.07 0,-0.14 0,-0.21 0,-3.13 0,-6.25 0,-9.38 0,-1.03 0,-2.05 0,-3.08 0,-0.34 0,-0.68 0,-1.02 0,-3.12 0,-6.23 0,-9.35 0,-0.07 0,-0.13 0,-0.2 -0,-0.88 -0,-1.76 -0,-2.64 0,-0.07 0,-0.13 0,-0.2 0,-0.13 0,-0.27 0,-0.4 -0,-3.07 -0,-6.14 -0,-9.2 0,-0.06 0,-0.12 0,-0.19 0,-1.36 0,-2.72 0,-4.08 0,-0.54 0,-1.08 0,-1.63 0,-0.06 0,-0.12 0,-0.18 0,-1.87 0,-3.75 -0,-5.62 -0,-1.9 -0,-3.79 0,-5.69 0,-1.08 0,-2.16 -0,-3.23 -0,-0.72 -0,-1.43 0,-2.15 0,-0.41 0,-0.81 0,-1.22 -0.01,-2.46 0.11,-4.9 0.49,-7.34 0.01,-0.07 0.02,-0.13 0.03,-0.2 0.87,-5.65 2.79,-11.19 5.68,-16.13 0.11,-0.18 0.21,-0.37 0.32,-0.55 1.28,-2.25 2.82,-4.36 4.51,-6.33 0.2,-0.24 0.4,-0.48 0.6,-0.72 0.24,-0.3 0.49,-0.57 0.76,-0.84 0.13,-0.13 0.25,-0.27 0.38,-0.42 0.39,-0.45 0.81,-0.87 1.23,-1.28 0.14,-0.14 0.28,-0.28 0.42,-0.42 0.46,-0.46 0.92,-0.91 1.42,-1.33 0.12,-0.11 0.25,-0.23 0.37,-0.34 0.41,-0.37 0.83,-0.7 1.26,-1.04 0.25,-0.19 0.49,-0.39 0.73,-0.59 2.59,-2.1 5.46,-3.8 8.43,-5.29 0.08,-0.04 0.15,-0.08 0.23,-0.12 3.05,-1.54 6.36,-2.65 9.68,-3.43 0.09,-0.02 0.19,-0.04 0.28,-0.07 3.36,-0.79 6.8,-1.16 10.25,-1.15zm47.73 56.44c-1.11,1.27 -1.53,3.1 -1.98,4.68 -0.5,1.73 -1.05,3.43 -1.63,5.13 -0.14,0.41 -0.27,0.81 -0.41,1.22 -0.23,0.7 -0.47,1.4 -0.7,2.11 -0.34,1.02 -0.68,2.04 -1.02,3.05 -0.55,1.66 -1.11,3.32 -1.66,4.97 -0.03,0.1 -0.07,0.2 -0.1,0.3 -0.37,1.1 -0.74,2.2 -1.11,3.3 -0.13,0.4 -0.27,0.8 -0.4,1.2 -0.03,0.1 -0.07,0.2 -0.1,0.3 -0.55,1.65 -1.1,3.3 -1.66,4.96 -0.34,1.01 -0.68,2.03 -1.02,3.04 -0.23,0.7 -0.47,1.39 -0.7,2.09 -0.13,0.4 -0.27,0.8 -0.4,1.2 -0.59,1.74 -1.14,3.49 -1.62,5.26 -0.37,1.33 -0.72,2.53 -1.96,3.29 -1.04,0.5 -2.24,0.57 -3.38,0.6 -0.05,0 -0.11,0 -0.16,0.01 -1.51,0.05 -3.02,0.06 -4.53,0.07 -0.43,0 -0.86,0.01 -1.29,0.01 -0.74,0.01 -1.49,0.01 -2.23,0.02 -1.08,0.01 -2.17,0.02 -3.25,0.03 -1.77,0.02 -3.54,0.03 -5.3,0.05 -1.7,0.01 -3.4,0.03 -5.1,0.04 -0.1,0 -0.21,0 -0.32,0 -1.14,0.01 -2.29,0.02 -3.43,0.03 -0.1,0 -0.2,0 -0.31,0 -0.41,0 -0.82,0.01 -1.22,0.01 -1.08,0.01 -2.16,0.02 -3.24,0.03 -0.14,0 -0.14,0 -0.28,0 -0.47,0 -0.93,0.01 -1.4,0.01 -0.89,0.01 -1.78,0.02 -2.67,0.02 -0.34,0 -0.68,0.01 -1.03,0.01 -0.08,0 -0.17,0 -0.25,0 -1.09,0.01 -2.18,0.02 -3.27,0.01 -0.57,-0 -1.13,0 -1.7,0 -0.38,0 -0.75,0 -1.13,-0 -2.17,-0.09 -2.17,-0.09 -4.12,0.72 -0.65,0.65 -1.03,1.67 -1.06,2.59 0.03,0.56 0.16,1.03 0.41,1.53 0.05,0.1 0.05,0.1 0.1,0.2 0.33,0.61 0.8,1.09 1.27,1.58 0.05,0.06 0.11,0.11 0.16,0.17 0.7,0.74 1.56,1.32 2.37,1.93 0.09,0.07 0.09,0.07 0.18,0.13 0.48,0.35 0.98,0.69 1.47,1.02 0.51,0.34 1.02,0.68 1.53,1.03 0.12,0.08 0.23,0.16 0.35,0.24 1.04,0.7 2.05,1.42 3.06,2.16 0.06,0.05 0.13,0.09 0.19,0.14 0.2,0.15 0.4,0.29 0.6,0.44 0.75,0.55 1.5,1.11 2.26,1.65 0.82,0.59 1.64,1.19 2.45,1.79 0.69,0.51 1.37,1.01 2.06,1.51 0.69,0.5 1.38,1 2.06,1.51 0.32,0.24 0.64,0.47 0.96,0.71 0.38,0.28 0.77,0.57 1.15,0.85 0.62,0.46 1.24,0.92 1.87,1.37 0.82,0.59 1.64,1.19 2.45,1.79 0.69,0.51 1.37,1.01 2.06,1.51 0.69,0.5 1.38,1 2.06,1.51 0.32,0.24 0.64,0.47 0.96,0.71 0.38,0.28 0.77,0.57 1.15,0.85 0.13,0.09 0.26,0.19 0.38,0.28 0.06,0.05 0.13,0.09 0.19,0.14 0.37,0.27 0.74,0.54 1.11,0.8 0.61,0.44 1.21,0.88 1.8,1.33 0.1,0.08 0.1,0.08 0.21,0.16 0.41,0.32 0.82,0.64 1.23,0.96 0.11,0.09 0.23,0.18 0.34,0.27 0.76,0.6 1.25,1.5 1.37,2.45 0.05,3.2 -1.68,6.62 -2.76,9.56 -1.38,3.76 -2.67,7.55 -3.96,11.34 -0.36,1.07 -0.73,2.15 -1.11,3.21 -0.02,0.07 -0.05,0.13 -0.07,0.2 -0.14,0.4 -0.28,0.8 -0.42,1.19 -0.89,2.54 -1.77,5.09 -2.63,7.65 -0.11,0.33 -0.22,0.67 -0.34,1 -0.96,2.83 -1.88,5.68 -2.64,8.57 -0.02,0.06 -0.03,0.12 -0.05,0.18 -0.62,2.18 -0.62,2.18 -0.13,4.32 0.17,0.26 0.36,0.49 0.56,0.73 0.06,0.07 0.13,0.14 0.19,0.22 0.68,0.6 1.36,0.95 2.28,0.93 1.16,-0.11 2.13,-0.72 3.07,-1.36 0.13,-0.08 0.13,-0.08 0.25,-0.17 0.59,-0.4 1.17,-0.82 1.73,-1.25 0.27,-0.21 0.55,-0.41 0.84,-0.61 0.64,-0.46 1.28,-0.93 1.91,-1.4 0.26,-0.19 0.52,-0.38 0.77,-0.57 0.13,-0.09 0.25,-0.19 0.38,-0.28 0.32,-0.23 0.63,-0.47 0.95,-0.7 0.74,-0.55 1.48,-1.1 2.22,-1.66 0.52,-0.4 1.05,-0.79 1.59,-1.18 0.48,-0.35 0.95,-0.71 1.42,-1.07 0.6,-0.46 1.2,-0.9 1.8,-1.35 0.48,-0.35 0.96,-0.71 1.43,-1.08 0.57,-0.44 1.15,-0.87 1.74,-1.29 0.47,-0.34 0.93,-0.69 1.39,-1.04 0.72,-0.56 1.46,-1.1 2.19,-1.64 0.32,-0.24 0.65,-0.48 0.97,-0.71 0.06,-0.05 0.13,-0.09 0.19,-0.14 0.4,-0.3 0.8,-0.59 1.2,-0.9 1.02,-0.77 2.05,-1.52 3.08,-2.27 0.44,-0.32 0.88,-0.64 1.32,-0.96 0.54,-0.4 1.08,-0.78 1.62,-1.17 0.35,-0.24 0.69,-0.49 1.03,-0.74 0.89,-0.65 1.79,-1.26 2.7,-1.88 0.07,-0.05 0.15,-0.1 0.22,-0.15 1.15,-0.78 2.31,-1.56 3.54,-2.2 0.08,-0.04 0.17,-0.09 0.26,-0.13 0.78,-0.28 1.49,0.07 2.19,0.39 3.39,1.66 6.45,4.07 9.48,6.31 0.19,0.14 0.39,0.29 0.58,0.43 0.78,0.57 1.56,1.16 2.33,1.75 0.34,0.26 0.68,0.52 1.01,0.78 0.11,0.08 0.11,0.08 0.22,0.16 0.55,0.42 1.11,0.84 1.67,1.26 0.45,0.33 0.89,0.67 1.33,1.02 0.65,0.51 1.31,0.99 1.98,1.47 0.3,0.22 0.6,0.43 0.9,0.65 0.06,0.04 0.12,0.09 0.18,0.13 0.63,0.46 1.26,0.92 1.89,1.38 0.26,0.19 0.51,0.38 0.77,0.57 0.13,0.09 0.26,0.19 0.38,0.28 0.32,0.23 0.63,0.47 0.95,0.7 0.75,0.55 1.5,1.12 2.24,1.68 0.43,0.33 0.86,0.64 1.3,0.95 0.51,0.36 1.01,0.75 1.5,1.13 0.39,0.3 0.78,0.59 1.19,0.88 0.48,0.34 0.95,0.69 1.41,1.05 0.52,0.4 1.04,0.79 1.57,1.16 0.35,0.24 0.69,0.5 1.02,0.75 1.04,0.78 2.09,1.56 3.15,2.32 0.26,0.18 0.51,0.37 0.75,0.57 0.5,0.42 0.88,0.52 1.54,0.48 1.06,-0.14 1.92,-0.48 2.61,-1.32 0.84,-1.19 0.72,-2.85 0.49,-4.22 -0.52,-2.76 -1.57,-5.38 -2.57,-7.98 -0.73,-1.88 -1.41,-3.78 -2.04,-5.7 -0.09,-0.28 -0.19,-0.57 -0.28,-0.85 -0.18,-0.56 -0.36,-1.12 -0.55,-1.68 -0.13,-0.41 -0.27,-0.82 -0.4,-1.23 -0.13,-0.41 -0.26,-0.81 -0.4,-1.22 -0.41,-1.26 -0.82,-2.52 -1.23,-3.77 -0.48,-1.46 -0.96,-2.93 -1.44,-4.39 -0.29,-0.91 -0.59,-1.81 -0.89,-2.71 -0.02,-0.05 -0.03,-0.1 -0.05,-0.16 -0.18,-0.53 -0.35,-1.07 -0.53,-1.6 -0.32,-0.97 -0.64,-1.94 -0.95,-2.91 -0.57,-1.77 -1.16,-3.52 -1.78,-5.27 -0.27,-0.76 -0.53,-1.52 -0.78,-2.29 -0.02,-0.06 -0.04,-0.12 -0.06,-0.18 -0.35,-1.1 -0.55,-2.26 0.01,-3.33 0.41,-0.67 1,-1.2 1.64,-1.66 0.05,-0.04 0.11,-0.08 0.17,-0.12 0.48,-0.35 0.96,-0.7 1.44,-1.05 0.4,-0.29 0.79,-0.58 1.19,-0.88 0.51,-0.39 1.03,-0.76 1.55,-1.14 0.4,-0.29 0.79,-0.58 1.19,-0.88 0.51,-0.38 1.02,-0.76 1.54,-1.13 0.64,-0.46 1.27,-0.92 1.9,-1.39 0.32,-0.24 0.64,-0.47 0.96,-0.71 0.13,-0.09 0.26,-0.19 0.38,-0.28 1.28,-0.94 2.55,-1.88 3.83,-2.82 0.06,-0.05 0.13,-0.09 0.19,-0.14 0.13,-0.09 0.26,-0.19 0.38,-0.28 0.32,-0.24 0.64,-0.47 0.96,-0.71 0.63,-0.46 1.25,-0.92 1.89,-1.38 0.46,-0.33 0.91,-0.66 1.35,-1 0.51,-0.38 1.02,-0.76 1.54,-1.13 0.64,-0.46 1.27,-0.92 1.9,-1.39 0.32,-0.24 0.64,-0.47 0.96,-0.71 0.13,-0.09 0.26,-0.19 0.38,-0.28 1.28,-0.94 2.55,-1.88 3.83,-2.82 0.06,-0.05 0.13,-0.09 0.19,-0.14 0.13,-0.09 0.26,-0.19 0.38,-0.28 0.32,-0.24 0.64,-0.47 0.96,-0.71 0.63,-0.46 1.25,-0.92 1.89,-1.38 0.46,-0.33 0.91,-0.66 1.35,-1 0.45,-0.34 0.9,-0.67 1.36,-1 0.12,-0.09 0.24,-0.18 0.36,-0.26 0.19,-0.14 0.38,-0.28 0.58,-0.41 1.81,-1.26 1.81,-1.26 2.74,-3.2 0.12,-0.85 0.18,-1.78 -0.28,-2.54 -0.03,-0.06 -0.07,-0.11 -0.1,-0.17 -0.69,-0.94 -2.01,-1.24 -3.09,-1.41 -0.59,-0.09 -1.17,-0.12 -1.77,-0.12 -0.08,0 -0.17,0 -0.25,0 -0.28,0 -0.57,0 -0.85,0 -0.21,0 -0.42,0 -0.63,0 -0.47,0 -0.93,0 -1.4,0 -0.73,0 -1.47,0 -2.2,0 -1.99,0 -3.98,0.01 -5.97,0.01 -0.17,0 -0.35,0 -0.52,0 -1.64,0 -3.27,0.01 -4.91,0.01 -0.37,0 -0.75,0 -1.12,0 -0.09,0 -0.19,0 -0.28,0 -1.51,0 -3.02,0.01 -4.53,0.01 -1.56,0 -3.13,0.01 -4.69,0.01 -0.87,0 -1.75,0 -2.62,0.01 -0.74,0 -1.48,0 -2.22,0.01 -0.38,0 -0.75,0 -1.13,0 -1.85,0 -3.69,0.03 -5.53,0.08 -0.7,0.02 -1.4,0.03 -2.09,0.03 -0.13,0 -0.26,0 -0.39,0 -1.4,0.02 -2.8,-0.07 -3.88,-1.07 -0.64,-0.7 -0.99,-1.5 -1.28,-2.39 -0.03,-0.08 -0.06,-0.17 -0.08,-0.25 -0.33,-1 -0.64,-2.01 -0.96,-3.02 -0.09,-0.28 -0.17,-0.56 -0.26,-0.84 -0.04,-0.12 -0.07,-0.23 -0.11,-0.35 -0.02,-0.06 -0.04,-0.12 -0.05,-0.18 -0.06,-0.18 -0.11,-0.35 -0.17,-0.53 -0.37,-1.19 -0.75,-2.39 -1.12,-3.58 -0.09,-0.28 -0.18,-0.56 -0.27,-0.85 -0.12,-0.4 -0.25,-0.79 -0.37,-1.19 -0.23,-0.73 -0.46,-1.47 -0.69,-2.2 -0.02,-0.06 -0.04,-0.11 -0.05,-0.17 -0.16,-0.51 -0.32,-1.01 -0.48,-1.52 -0.11,-0.34 -0.21,-0.68 -0.32,-1.02 -0.02,-0.06 -0.04,-0.11 -0.05,-0.17 -0.24,-0.78 -0.49,-1.55 -0.73,-2.33 -0.16,-0.49 -0.31,-0.99 -0.47,-1.49 -0.03,-0.08 -0.03,-0.08 -0.05,-0.17 -0.44,-1.39 -0.87,-2.78 -1.31,-4.17 -0.03,-0.1 -0.03,-0.1 -0.06,-0.2 -0.19,-0.61 -0.38,-1.23 -0.57,-1.84 -0.44,-1.41 -0.88,-2.81 -1.32,-4.22 -0.06,-0.19 -0.12,-0.39 -0.18,-0.58 -0.04,-0.13 -0.08,-0.25 -0.12,-0.38 -0.03,-0.09 -0.03,-0.09 -0.06,-0.19 -0.09,-0.3 -0.19,-0.6 -0.28,-0.89 -0.6,-1.91 -1.17,-3.82 -1.68,-5.75 -0.34,-1.29 -0.67,-2.57 -1.19,-3.79 -0.03,-0.06 -0.05,-0.13 -0.08,-0.19 -0.49,-1.15 -1.16,-2.45 -2.35,-2.98 -1.35,-0.51 -2.97,0.11 -3.94,1.08zm37.73 85.11c-0.07,0.06 -0.15,0.13 -0.23,0.19 -0.45,0.37 -0.45,0.37 -0.74,0.85 0.03,0.23 0.03,0.23 0.12,0.48 0.03,0.1 0.06,0.19 0.09,0.3 0.03,0.11 0.07,0.22 0.1,0.32 0.04,0.11 0.07,0.23 0.11,0.34 0.08,0.24 0.15,0.49 0.23,0.73 0.12,0.39 0.24,0.78 0.37,1.17 0.04,0.13 0.08,0.27 0.12,0.4 0.02,0.07 0.04,0.13 0.06,0.2 0.06,0.21 0.13,0.41 0.19,0.62 0.4,1.27 0.78,2.55 1.17,3.83 0.11,0.36 0.22,0.73 0.33,1.09 0.02,0.06 0.04,0.12 0.06,0.18 0.04,0.12 0.07,0.24 0.11,0.36 0.24,0.81 0.49,1.62 0.73,2.42 0.17,0.58 0.35,1.15 0.52,1.73 0.09,0.3 0.18,0.6 0.27,0.9 0.86,3.15 0.86,3.15 2.69,5.79 0.05,0.04 0.09,0.09 0.14,0.14 0.37,0.31 0.75,0.38 1.23,0.35 1,-0.19 1.76,-1.12 2.32,-1.9 1.19,-1.76 2.13,-3.68 3.08,-5.58 0.4,-0.81 0.82,-1.62 1.27,-2.4 0.23,-0.4 0.45,-0.8 0.67,-1.19 0.1,-0.17 0.19,-0.35 0.29,-0.52 0.05,-0.08 0.09,-0.17 0.14,-0.25 0.12,-0.21 0.23,-0.41 0.35,-0.62 0.2,-0.35 0.39,-0.71 0.59,-1.06 0.06,-0.11 0.06,-0.11 0.12,-0.22 1.39,-2.47 1.39,-2.47 1.41,-5.23 -0.46,-0.98 -1.25,-1.55 -2.17,-2.05 -0.05,-0.03 -0.11,-0.06 -0.16,-0.09 -1.06,-0.57 -2.19,-0.97 -3.32,-1.38 -1.03,-0.37 -2.05,-0.76 -3.06,-1.19 -0.12,-0.05 -0.24,-0.1 -0.36,-0.15 -0.17,-0.07 -0.34,-0.15 -0.52,-0.22 -3.39,-1.43 -5.53,-0.78 -8.29,1.66zm-81.92 -1.3c-1.2,0.5 -2.42,0.94 -3.66,1.35 -2.66,0.85 -2.66,0.85 -4.66,2.68 -0.23,0.57 -0.01,1.19 0.19,1.74 0.02,0.07 0.05,0.14 0.07,0.21 1.33,3.61 3.13,7.16 5,10.52 0.1,0.19 0.21,0.38 0.31,0.56 1.83,3.8 1.83,3.8 4.79,6.48 0.59,0.07 1.13,-0.11 1.62,-0.44 0.56,-0.45 0.84,-1.12 1.06,-1.79 0.02,-0.05 0.03,-0.1 0.05,-0.16 0.21,-0.65 0.41,-1.31 0.61,-1.96 0.75,-2.47 1.53,-4.93 2.31,-7.4 0.2,-0.64 0.4,-1.28 0.61,-1.92 0.48,-1.52 0.97,-3.04 1.48,-4.55 0.52,-1.27 0.52,-1.27 0.64,-2.58 -0.11,-0.19 -0.21,-0.35 -0.34,-0.53 -0.04,-0.05 -0.07,-0.1 -0.11,-0.15 -0.4,-0.53 -0.85,-1.02 -1.32,-1.5 -0.07,-0.07 -0.13,-0.13 -0.2,-0.2 -2.55,-2.44 -5.58,-1.56 -8.46,-0.37zm58.8 37.88c-0.14,0.16 -0.28,0.32 -0.41,0.49 -0.06,0.08 -0.13,0.16 -0.19,0.24 -0.72,0.94 -1.19,1.95 -1.52,3.08 -0.02,0.06 -0.04,0.12 -0.05,0.19 -0.32,1.16 -0.51,2.35 -0.64,3.54 -0.01,0.07 -0.02,0.14 -0.02,0.21 -0.01,0.07 -0.02,0.15 -0.02,0.22 -0.02,0.14 -0.03,0.28 -0.05,0.43 -0.09,0.76 -0.17,1.52 -0.25,2.28 -0.18,1.75 -0.38,3.49 -0.61,5.23 -0.01,0.1 -0.03,0.19 -0.04,0.29 -0.11,0.8 -0.21,1.6 -0.32,2.39 -0.52,3.9 -0.91,7.79 -1.19,11.72 -0.08,1.09 -0.15,2.19 -0.23,3.28 -0.01,0.13 -0.02,0.27 -0.03,0.4 -0.18,2.47 -0.36,4.94 -0.55,7.41 -0.01,0.13 -0.01,0.13 -0.02,0.27 -0.06,0.82 -0.13,1.65 -0.19,2.47 -0.93,12.08 -0.93,12.08 -2.14,34.76 -0,0.09 -0.01,0.19 -0.01,0.29 -0.13,3.91 -0.15,7.83 -0.15,11.74 0,0.48 0,0.96 0,1.44 0,0.94 0,1.89 0,2.83 0,0.91 0,1.82 0,2.74 0,0.06 0,0.12 0,0.17 0,0.5 0,1 0,1.5 0,2.13 0,4.25 0,6.38 5.27,0 10.53,0 15.96,0 -0.2,-0.74 -0.2,-0.74 -0.43,-1.45 -0.04,-0.11 -0.07,-0.21 -0.11,-0.32 -0.02,-0.05 -0.04,-0.11 -0.06,-0.17 -2.5,-7.12 -4.46,-14.54 -5.04,-22.08 -0,-0.05 -0.01,-0.11 -0.01,-0.16 -0.47,-5.99 0,-12.01 1.09,-17.91 0.01,-0.07 0.03,-0.14 0.04,-0.22 0.37,-2.01 0.82,-4 1.27,-6 0.06,-0.26 0.12,-0.52 0.17,-0.78 1.95,-8.76 1.95,-8.76 3.24,-12.73 0.02,-0.07 0.02,-0.07 0.05,-0.15 0.51,-1.56 1.02,-3.12 1.53,-4.67 0.24,-0.72 0.48,-1.44 0.71,-2.16 1.63,-4.98 3.6,-9.8 5.68,-14.6 0.19,-0.45 0.39,-0.89 0.58,-1.34 0.1,-0.24 0.21,-0.48 0.31,-0.73 0.44,-1.02 0.87,-2.04 1.25,-3.08 0.03,-0.09 0.07,-0.18 0.1,-0.27 0.51,-1.41 0.94,-2.89 0.42,-4.36 -1.01,-2.16 -3.69,-3.48 -5.58,-4.74 -0.28,-0.19 -0.56,-0.38 -0.85,-0.57 -0.2,-0.14 -0.41,-0.27 -0.61,-0.41 -1.3,-0.87 -2.55,-1.8 -3.79,-2.77 -2.84,-2.24 -2.84,-2.24 -5.96,-4.06 -0.05,-0.03 -0.11,-0.05 -0.17,-0.08 -0.58,-0.27 -0.58,-0.27 -1.17,-0.19zm-34.83 4.91c-0.34,0.26 -0.68,0.52 -1.02,0.78 -0.3,0.22 -0.59,0.45 -0.89,0.67 -0.68,0.52 -1.36,1.03 -2.07,1.53 -0.15,0.11 -0.31,0.22 -0.46,0.33 -0.61,0.43 -1.22,0.86 -1.83,1.27 -0.95,0.65 -1.89,1.29 -2.77,2.05 -0.05,0.04 -0.11,0.09 -0.16,0.14 -0.53,0.48 -0.91,1.2 -0.98,1.92 -0.03,1.15 0.37,2.2 0.81,3.24 0.08,0.19 0.16,0.38 0.24,0.57 0.08,0.2 0.17,0.41 0.25,0.61 0.31,0.75 0.61,1.51 0.92,2.26 0.06,0.14 0.11,0.28 0.17,0.42 0.17,0.43 0.34,0.86 0.52,1.29 0.04,0.11 0.04,0.11 0.09,0.22 0.99,2.48 1.98,4.97 2.92,7.47 0.03,0.08 0.06,0.16 0.09,0.24 1.18,3.14 2.3,6.31 3.35,9.5 0.07,0.22 0.15,0.44 0.22,0.66 1.15,3.45 2.15,6.96 3.06,10.48 0.06,0.24 0.12,0.48 0.19,0.72 1.91,7.39 3.41,14.95 3.84,24.41 0,0.13 0,0.27 0,0.4 0,0.42 0,0.85 0,1.27 0,0.11 0,0.11 0,0.22 0,2.18 -0.02,4.34 -0.26,6.51 -0.01,0.13 -0.03,0.26 -0.04,0.4 -0.75,7.02 -2.57,13.98 -5.11,20.81 -0.13,0.35 -0.13,0.35 -0.17,0.72 5.4,0 10.8,0 16.36,0 0.07,-1.12 0.07,-1.12 0.09,-2.24 0,-0.07 0,-0.13 0,-0.2 0,-0.22 0,-0.43 0,-0.65 0,-0.15 0,-0.31 0,-0.46 0,-0.32 0,-0.64 0,-0.96 0,-0.32 0,-0.65 0,-0.97 0.02,-2.54 0.02,-2.54 -0.18,-5.07 -0.01,-0.06 -0.01,-0.12 -0.02,-0.18 -0.04,-0.36 -0.09,-0.73 -0.14,-1.09 -0.03,-0.2 -0.06,-0.4 -0.08,-0.6 -0.01,-0.08 -0.02,-0.17 -0.04,-0.26 -0.01,-0.1 -0.02,-0.19 -0.04,-0.29 -0.01,-0.05 -0.01,-0.11 -0.02,-0.16 -0.09,-0.8 -0.07,-1.61 -0.07,-2.42 0,-0.17 0,-0.34 0,-0.51 0,-0.37 0,-0.74 0,-1.1 0,-0.58 0,-1.17 0,-1.75 0,-1.66 0,-3.33 0.01,-4.99 0,-0.92 0,-1.84 0,-2.76 0,-0.48 0,-0.97 0,-1.45 0.01,-3.75 0.01,-3.75 -0.34,-7.48 -0.03,-0.2 -0.06,-0.4 -0.08,-0.6 -0.01,-0.08 -0.02,-0.17 -0.04,-0.25 -0.01,-0.09 -0.02,-0.18 -0.04,-0.28 -0.01,-0.05 -0.01,-0.11 -0.02,-0.16 -0.07,-0.62 -0.08,-1.25 -0.09,-1.87 -0,-0.21 -0.01,-0.42 -0.01,-0.63 -0.01,-0.3 -0.01,-0.6 -0.02,-0.91 -0.15,-7.78 -0.69,-15.53 -4.68,-54.58 -0.01,-0.07 -0.02,-0.14 -0.03,-0.21 -0.12,-0.9 -0.24,-1.8 -0.36,-2.7 -0.02,-0.14 -0.04,-0.27 -0.06,-0.41 -0.06,-0.44 -0.12,-0.88 -0.18,-1.32 -0.02,-0.14 -0.04,-0.28 -0.06,-0.42 -0.36,-2.77 -0.36,-2.77 -1.83,-5.06 -2.67,-1.84 -6.99,2.41 -8.94,3.93z"/>
  <polygon class="fil0" points="217.45,105.63 243.32,98.43 235.52,175.46 261.66,178.23 266.08,102.68 295.87,107.38 298.63,81.38 220.21,73.06 "/>
  <polygon class="fil0" points="278.24,183.72 323.37,178.79 322.43,165.29 299.88,166.86 299.07,155.29 319.02,153.9 318.05,139.99 298.1,141.38 297.38,131.07 319.93,129.5 318.98,115.83 279.92,115.66 "/>
  <path class="fil0" d="M388.21 107.85c-8.09,-6.29 -18.47,-9.4 -29.36,-8.04 -21.89,2.74 -37.44,22.73 -34.7,44.62 2.74,21.89 22.73,37.44 44.62,34.7 11,-1.38 20.37,-7.17 26.67,-15.26 -5.12,-3.57 -10.75,-7.8 -16.63,-12.74 -2.85,3.79 -7.27,6.28 -12.67,6.95 -10.79,1.35 -19.59,-5.5 -20.94,-16.29 -1.35,-10.79 5.5,-19.59 16.29,-20.94 5.39,-0.67 10.29,0.65 13.97,3.52l12.76 -16.53z"/>
  <polygon class="fil0" points="389.09,96.24 402.04,175.12 422.76,171.72 417.82,141.64 442.85,137.53 447.79,167.61 468.51,164.21 455.56,85.32 434.84,88.73 439.45,116.81 414.42,120.92 409.81,92.84 "/>
  <polygon class="fil0" points="235.05,286.46 254.78,279.29 243.9,249.33 268.04,240.56 261.96,223.83 237.82,232.6 238.86,223.41 260.69,210.34 253.22,187.1 210.21,213.72 "/>
  <path class="fil0" d="M274.71 275.06l14.64 -0.78c-0.99,-18.58 -1.97,-37.17 -2.96,-55.75 -4,4.03 -8.53,5.89 -14.64,0.78l2.96 55.75z"/>
  <polygon class="fil0" points="295.24,278.28 345.99,279.06 346.92,261.93 318.38,258.68 319.08,245.69 344.41,247.06 345.37,229.39 320.04,228.02 320.75,214.93 349.38,216.48 350.32,199.13 297.76,199.4 "/>
  <path class="fil0" d="M395.21 227.16c-0.61,-11.59 -10.43,-17.54 -22.03,-16.92 -11.59,0.62 -20.33,10.43 -19.72,22.03 0.62,11.68 10.35,20.43 21.94,19.81 2.81,-0.15 5.29,2.08 5.44,4.89 0.15,2.81 -2.09,5.2 -4.89,5.35 -2.81,0.15 -7.29,-4.09 -7.44,-6.99l-19.63 2.94c0.63,11.95 16.32,20.6 27.92,19.99 11.59,-0.62 20.43,-10.35 19.81,-21.94 -0.26,-4.98 -2.13,-9.42 -5.22,-12.89 -4.06,-4.69 -10.21,-7.54 -16.82,-7.19 -2.81,0.15 -5.19,-2.04 -5.34,-4.89 -0.15,-2.79 1.99,-5.28 4.8,-5.43 2.81,-0.15 5.29,-0.7 5.44,2.14l15.75 -0.88z"/>
  <polygon class="fil0" points="381.46,207.6 403.32,203.19 402.6,265.57 421.93,262.96 425.03,203.55 444.37,204.26 443.26,183.4 380.35,186.74 "/>
  <path class="fil0" d="M434.58 283.49l5.23 -13.04 32.67 1.91 5.14 10.75 20.11 1.22 -38.02 -82.41 -46.26 79.71 21.13 1.86zm23.68 -47.4l7.06 18.08 -16.28 -0.95 9.22 -17.13z"/>
  <circle class="fil1" cx="278.03" cy="205.65" r="6.37"/>
 </g>
</svg>
