<svg width="196" height="56" viewBox="0 0 196 56" fill="none" xmlns="http://www.w3.org/2000/svg">
<path d="M9.10227 25.0455V38H4.85511V16.1818H8.93182V19.733H9.2017C9.7036 18.5777 10.4896 17.6496 11.5597 16.9489C12.6392 16.2481 13.9981 15.8977 15.6364 15.8977C17.1231 15.8977 18.4252 16.2102 19.5426 16.8352C20.66 17.4508 21.5265 18.3693 22.142 19.5909C22.7576 20.8125 23.0653 22.3229 23.0653 24.1222V38H18.8182V24.6335C18.8182 23.0521 18.4063 21.8163 17.5824 20.9261C16.7585 20.0265 15.6269 19.5767 14.1875 19.5767C13.2027 19.5767 12.3267 19.7898 11.5597 20.2159C10.8021 20.642 10.2008 21.267 9.75568 22.0909C9.32008 22.9053 9.10227 23.8902 9.10227 25.0455ZM27.1614 38V16.1818H31.4085V38H27.1614ZM29.3062 12.8153C28.5676 12.8153 27.9331 12.5691 27.4028 12.0767C26.882 11.5748 26.6216 10.9782 26.6216 10.2869C26.6216 9.58617 26.882 8.98958 27.4028 8.49716C27.9331 7.99526 28.5676 7.74432 29.3062 7.74432C30.0449 7.74432 30.6746 7.99526 31.1955 8.49716C31.7258 8.98958 31.9909 9.58617 31.9909 10.2869C31.9909 10.9782 31.7258 11.5748 31.1955 12.0767C30.6746 12.5691 30.0449 12.8153 29.3062 12.8153ZM44.7126 38.4403C42.6009 38.4403 40.7827 37.9621 39.2581 37.0057C37.7429 36.0398 36.5782 34.7093 35.7638 33.0142C34.9494 31.3191 34.5422 29.3778 34.5422 27.1903C34.5422 24.9744 34.9589 23.0189 35.7922 21.3239C36.6255 19.6193 37.7998 18.2888 39.3149 17.3324C40.8301 16.3759 42.6151 15.8977 44.67 15.8977C46.3272 15.8977 47.8045 16.2055 49.1018 16.821C50.3992 17.4271 51.4456 18.2794 52.2411 19.3778C53.046 20.4763 53.5242 21.7595 53.6757 23.2273H49.5422C49.3149 22.2045 48.7941 21.3239 47.9797 20.5852C47.1748 19.8466 46.0952 19.4773 44.7411 19.4773C43.5573 19.4773 42.5204 19.7898 41.6303 20.4148C40.7496 21.0303 40.063 21.911 39.5706 23.0568C39.0782 24.1932 38.832 25.5379 38.832 27.0909C38.832 28.6818 39.0734 30.0549 39.5564 31.2102C40.0393 32.3655 40.7212 33.2604 41.6018 33.8949C42.492 34.5294 43.5384 34.8466 44.7411 34.8466C45.546 34.8466 46.2751 34.6998 46.9286 34.4062C47.5914 34.1032 48.1454 33.6723 48.5905 33.1136C49.045 32.5549 49.3623 31.8826 49.5422 31.0966H53.6757C53.5242 32.5076 53.0649 33.767 52.2979 34.875C51.5308 35.983 50.5034 36.8542 49.2155 37.4886C47.9371 38.1231 46.4361 38.4403 44.7126 38.4403ZM60.5239 30.5994L60.4955 25.4148H61.2341L69.9273 16.1818H75.0125L65.0977 26.6932H64.4301L60.5239 30.5994ZM56.6176 38V8.90909H60.8648V38H56.6176ZM70.396 38L62.5835 27.6307L65.5097 24.6619L75.6091 38H70.396ZM85.7882 38.4403C83.6386 38.4403 81.7873 37.9811 80.2342 37.0625C78.6907 36.1345 77.4975 34.8324 76.6547 33.1562C75.8214 31.4706 75.4047 29.4962 75.4047 27.233C75.4047 24.9981 75.8214 23.0284 76.6547 21.3239C77.4975 19.6193 78.6717 18.2888 80.1774 17.3324C81.6926 16.3759 83.4634 15.8977 85.4899 15.8977C86.721 15.8977 87.9142 16.1013 89.0695 16.5085C90.2248 16.9157 91.2617 17.5549 92.1803 18.4261C93.0988 19.2973 93.8232 20.429 94.3536 21.821C94.8839 23.2036 95.149 24.8845 95.149 26.8636V28.3693H77.8053V25.1875H90.9871C90.9871 24.0701 90.7598 23.0805 90.3053 22.2188C89.8507 21.3475 89.2115 20.661 88.3876 20.1591C87.5732 19.6572 86.6168 19.4062 85.5183 19.4062C84.3251 19.4062 83.2835 19.6998 82.3933 20.2869C81.5126 20.8646 80.8308 21.6222 80.3479 22.5597C79.8744 23.4877 79.6376 24.4962 79.6376 25.5852V28.071C79.6376 29.5294 79.8933 30.7699 80.4047 31.7926C80.9255 32.8153 81.65 33.5966 82.578 34.1364C83.506 34.6667 84.5903 34.9318 85.8308 34.9318C86.6357 34.9318 87.3696 34.8182 88.0325 34.5909C88.6954 34.3542 89.2683 34.0038 89.7513 33.5398C90.2342 33.0758 90.6036 32.5028 90.8592 31.821L94.8791 32.5455C94.5571 33.7292 93.9795 34.7661 93.1462 35.6562C92.3223 36.5369 91.2854 37.2235 90.0354 37.7159C88.7948 38.1989 87.3791 38.4403 85.7882 38.4403ZM102.509 8.90909V38H98.2614V8.90909H102.509ZM122.972 21.5085L119.122 22.1903C118.961 21.6979 118.706 21.2292 118.355 20.7841C118.014 20.339 117.55 19.9744 116.963 19.6903C116.376 19.4062 115.642 19.2642 114.762 19.2642C113.559 19.2642 112.555 19.5341 111.75 20.0739C110.945 20.6042 110.543 21.2907 110.543 22.1335C110.543 22.8627 110.813 23.4498 111.352 23.8949C111.892 24.34 112.763 24.7045 113.966 24.9886L117.432 25.7841C119.44 26.2481 120.936 26.9631 121.921 27.929C122.905 28.8949 123.398 30.1496 123.398 31.6932C123.398 33 123.019 34.1648 122.262 35.1875C121.513 36.2008 120.467 36.9962 119.122 37.5739C117.787 38.1515 116.239 38.4403 114.477 38.4403C112.034 38.4403 110.041 37.9195 108.497 36.8778C106.954 35.8267 106.007 34.3352 105.656 32.4034L109.762 31.7784C110.017 32.8485 110.543 33.6581 111.338 34.2074C112.134 34.7472 113.171 35.017 114.449 35.017C115.841 35.017 116.954 34.7282 117.787 34.1506C118.62 33.5634 119.037 32.8485 119.037 32.0057C119.037 31.3239 118.781 30.7509 118.27 30.2869C117.768 29.8229 116.996 29.4725 115.955 29.2358L112.262 28.4261C110.226 27.9621 108.72 27.2235 107.744 26.2102C106.779 25.197 106.296 23.9138 106.296 22.3608C106.296 21.0729 106.655 19.946 107.375 18.9801C108.095 18.0142 109.089 17.2614 110.358 16.7216C111.627 16.1723 113.081 15.8977 114.719 15.8977C117.077 15.8977 118.933 16.4091 120.287 17.4318C121.641 18.4451 122.536 19.804 122.972 21.5085Z" fill="black"/>
<rect x="133" y="2" width="50" height="48" rx="4" fill="black"/>
<path d="M158.384 15.2841L150.472 37.1023H145.926L138 15.2841H142.56L148.085 32.0739H148.312L153.824 15.2841H158.384Z" fill="white"/>
<path d="M169.223 37.5426C167.111 37.5426 165.293 37.0644 163.769 36.108C162.253 35.142 161.089 33.8116 160.274 32.1165C159.46 30.4214 159.053 28.4801 159.053 26.2926C159.053 24.0767 159.469 22.1212 160.303 20.4261C161.136 18.7216 162.31 17.3911 163.825 16.4347C165.341 15.4782 167.126 15 169.181 15C170.838 15 172.315 15.3078 173.612 15.9233C174.91 16.5294 175.956 17.3816 176.752 18.4801C177.556 19.5786 178.035 20.8617 178.186 22.3295H174.053C173.825 21.3068 173.305 20.4261 172.49 19.6875C171.685 18.9489 170.606 18.5795 169.252 18.5795C168.068 18.5795 167.031 18.892 166.141 19.517C165.26 20.1326 164.574 21.0133 164.081 22.1591C163.589 23.2955 163.342 24.6402 163.342 26.1932C163.342 27.7841 163.584 29.1572 164.067 30.3125C164.55 31.4678 165.232 32.3627 166.112 32.9972C167.003 33.6316 168.049 33.9489 169.252 33.9489C170.056 33.9489 170.786 33.8021 171.439 33.5085C172.102 33.2055 172.656 32.7746 173.101 32.2159C173.556 31.6572 173.873 30.9848 174.053 30.1989H178.186C178.035 31.6098 177.575 32.8693 176.808 33.9773C176.041 35.0852 175.014 35.9564 173.726 36.5909C172.448 37.2254 170.947 37.5426 169.223 37.5426Z" fill="white"/>
</svg>
