<svg width="32" height="33" viewBox="0 0 32 33" fill="none" xmlns="http://www.w3.org/2000/svg">
<mask id="mask0_161_339" style="mask-type:alpha" maskUnits="userSpaceOnUse" x="0" y="0" width="32" height="33">
<rect y="0.5" width="32" height="32" fill="#D9D9D9"/>
</mask>
<g mask="url(#mask0_161_339)">
<path d="M28.3998 25.4333L24.3998 21.4333L26.2664 19.5667L30.2664 23.5667L28.3998 25.4333ZM23.5998 9.43332L21.7331 7.56666L25.7331 3.56666L27.5998 5.43332L23.5998 9.43332ZM8.39976 9.43332L4.39976 5.43332L6.26643 3.56666L10.2664 7.56666L8.39976 9.43332ZM3.59976 25.4333L1.73309 23.5667L5.73309 19.5667L7.59976 21.4333L3.59976 25.4333ZM7.76643 28.5L9.93309 19.1333L2.66643 12.8333L12.2664 12L15.9998 3.16666L19.7331 12L29.3331 12.8333L22.0664 19.1333L24.2331 28.5L15.9998 23.5333L7.76643 28.5Z" fill="white"/>
</g>
</svg>
