<svg width="84" height="84" viewBox="0 0 84 84" fill="none" xmlns="http://www.w3.org/2000/svg">
<rect width="84" height="84" rx="42" fill="url(#paint0_linear_461_2237)"/>
<path d="M50.011 62.898L40.1425 53.0295L43.3933 49.7787L50.011 56.3964L63.1303 43.2771L66.381 46.5279L50.011 62.898ZM22.2631 58.254C20.986 58.254 19.8928 57.7993 18.9833 56.8898C18.0739 55.9804 17.6191 54.8871 17.6191 53.61V25.746C17.6191 24.4689 18.0739 23.3757 18.9833 22.4662C19.8928 21.5568 20.986 21.1021 22.2631 21.1021H59.4151C60.6922 21.1021 61.7854 21.5568 62.6949 22.4662C63.6043 23.3757 64.0591 24.4689 64.0591 25.746V35.8467L50.069 49.8367L43.3933 43.161L33.5829 52.9714L38.8654 58.254H22.2631ZM40.8391 42L59.4151 30.39V25.746L40.8391 37.356L22.2631 25.746V30.39L40.8391 42Z" fill="white"/>
<defs>
<linearGradient id="paint0_linear_461_2237" x1="16.0212" y1="40.3825" x2="109.113" y2="7.6451" gradientUnits="userSpaceOnUse">
<stop stop-color="#C8C8C8"/>
<stop offset="1" stop-color="#AE39E3"/>
</linearGradient>
</defs>
</svg>
