<svg width="50" height="48" viewBox="0 0 50 48" fill="none" xmlns="http://www.w3.org/2000/svg">
<rect width="50" height="48" rx="4" fill="#C54D25"/>
<path d="M25.3835 13.2841L17.4716 35.1023H12.9261L5 13.2841H9.55966L15.0852 30.0739H15.3125L20.8239 13.2841H25.3835Z" fill="white"/>
<path d="M36.2232 35.5426C34.1114 35.5426 32.2932 35.0644 30.7686 34.108C29.2535 33.142 28.0887 31.8116 27.2743 30.1165C26.4599 28.4214 26.0527 26.4801 26.0527 24.2926C26.0527 22.0767 26.4694 20.1212 27.3027 18.4261C28.136 16.7216 29.3103 15.3911 30.8254 14.4347C32.3406 13.4782 34.1256 13 36.1805 13C37.8377 13 39.315 13.3078 40.6124 13.9233C41.9097 14.5294 42.9561 15.3816 43.7516 16.4801C44.5565 17.5786 45.0347 18.8617 45.1862 20.3295H41.0527C40.8254 19.3068 40.3046 18.4261 39.4902 17.6875C38.6853 16.9489 37.6057 16.5795 36.2516 16.5795C35.0679 16.5795 34.0309 16.892 33.1408 17.517C32.2601 18.1326 31.5735 19.0133 31.0811 20.1591C30.5887 21.2955 30.3425 22.6402 30.3425 24.1932C30.3425 25.7841 30.584 27.1572 31.0669 28.3125C31.5499 29.4678 32.2317 30.3627 33.1124 30.9972C34.0025 31.6316 35.0489 31.9489 36.2516 31.9489C37.0565 31.9489 37.7857 31.8021 38.4391 31.5085C39.1019 31.2055 39.6559 30.7746 40.101 30.2159C40.5555 29.6572 40.8728 28.9848 41.0527 28.1989H45.1862C45.0347 29.6098 44.5754 30.8693 43.8084 31.9773C43.0413 33.0852 42.0139 33.9564 40.726 34.5909C39.4476 35.2254 37.9466 35.5426 36.2232 35.5426Z" fill="white"/>
</svg>
