<svg width="107" height="107" viewBox="0 0 107 107" fill="none" xmlns="http://www.w3.org/2000/svg">
<rect width="106.194" height="106.194" rx="53.0972" fill="url(#paint0_linear_461_3535)"/>
<mask id="mask0_461_3535" style="mask-type:alpha" maskUnits="userSpaceOnUse" x="24" y="24" width="59" height="59">
<rect x="24" y="24" width="58.1943" height="58.1943" fill="#D9D9D9"/>
</mask>
<g mask="url(#mask0_461_3535)">
<path d="M28.8496 77.3448L40.9734 43.3981L62.7963 65.221L28.8496 77.3448ZM36.8513 69.3431L53.9459 63.2812L42.9132 52.2485L36.8513 69.3431ZM59.2804 54.4308L56.7344 51.8848L70.3131 38.3061C71.6063 37.0129 73.1622 36.3663 74.9807 36.3663C76.7993 36.3663 78.3552 37.0129 79.6484 38.3061L81.1033 39.761L78.5573 42.307L77.1024 40.8521C76.5366 40.2863 75.8294 40.0034 74.9807 40.0034C74.1321 40.0034 73.4249 40.2863 72.8591 40.8521L59.2804 54.4308ZM49.5813 44.7317L47.0353 42.1857L48.4902 40.7309C49.056 40.1651 49.3389 39.4781 49.3389 38.6698C49.3389 37.8616 49.056 37.1746 48.4902 36.6088L46.9141 35.0327L49.4601 32.4867L51.0362 34.0628C52.3294 35.356 52.976 36.8917 52.976 38.6698C52.976 40.448 52.3294 41.9837 51.0362 43.2769L49.5813 44.7317ZM54.4309 49.5813L51.8849 47.0353L60.614 38.3061C61.1798 37.7403 61.4627 37.0331 61.4627 36.1844C61.4627 35.3358 61.1798 34.6285 60.614 34.0628L56.7344 30.1831L59.2804 27.6371L63.16 31.5168C64.4532 32.81 65.0998 34.3659 65.0998 36.1844C65.0998 38.003 64.4532 39.5589 63.16 40.8521L54.4309 49.5813ZM64.1299 59.2803L61.5839 56.7343L65.4635 52.8547C66.7568 51.5615 68.3126 50.9149 70.1312 50.9149C71.9498 50.9149 73.5057 51.5615 74.7989 52.8547L78.6785 56.7343L76.1325 59.2803L72.2529 55.4007C71.6871 54.8349 70.9799 54.552 70.1312 54.552C69.2826 54.552 68.5753 54.8349 68.0096 55.4007L64.1299 59.2803Z" fill="white"/>
</g>
<defs>
<linearGradient id="paint0_linear_461_3535" x1="20.2543" y1="51.0523" x2="137.942" y2="9.66507" gradientUnits="userSpaceOnUse">
<stop stop-color="#C8C8C8"/>
<stop offset="1" stop-color="#AE39E3"/>
</linearGradient>
</defs>
</svg>
